<svg width="156" height="157" viewBox="0 0 156 157" fill="none" xmlns="http://www.w3.org/2000/svg">
    <path fill-rule="evenodd" clip-rule="evenodd" d="M147.977 42.3491C135.96 17.2781 110.909 0 77.4918 0C29.767 0 0 35.24 0 78.0914C0 105.449 11.726 129.507 32.6998 143.452C33.8949 142.558 34.6148 141.977 34.6148 141.977C45.0762 135.151 55.2818 127.966 65.2141 120.436C46.5023 114.93 37.0531 97.0251 37.0531 78.0914C37.0531 55.6093 51.0563 33.7231 77.7627 33.7231C101.281 33.7231 116.669 53.2192 118.324 74.3116C128.633 64.0801 138.526 53.4181 147.977 42.3491ZM74.0063 156.111C103.6 135.134 130.964 111.172 155.649 84.6218C152.824 124.712 123.93 156.183 77.7897 156.183C76.5152 156.183 75.2539 156.159 74.0063 156.111Z" fill="#8DD3BB"/>
</svg>
